<?xml version="1.0" encoding="UTF-8" standalone="no"?>
<svg
   xmlns:dc="http://purl.org/dc/elements/1.1/"
   xmlns:cc="http://creativecommons.org/ns#"
   xmlns:rdf="http://www.w3.org/1999/02/22-rdf-syntax-ns#"
   xmlns:svg="http://www.w3.org/2000/svg"
   xmlns="http://www.w3.org/2000/svg"
   xmlns:sodipodi="http://sodipodi.sourceforge.net/DTD/sodipodi-0.dtd"
   xmlns:inkscape="http://www.inkscape.org/namespaces/inkscape"
   width="24"
   height="24"
   viewBox="0 0 24 24"
   fill="none"
   version="1.1"
   id="svg4"
   sodipodi:docname="cart.svg"
   inkscape:version="0.92.5 (2060ec1f9f, 2020-04-08)">
  <metadata
     id="metadata10">
    <rdf:RDF>
      <cc:Work
         rdf:about="">
        <dc:format>image/svg+xml</dc:format>
        <dc:type
           rdf:resource="http://purl.org/dc/dcmitype/StillImage" />
      </cc:Work>
    </rdf:RDF>
  </metadata>
  <defs
     id="defs8" />
  <sodipodi:namedview
     pagecolor="#ffffff"
     bordercolor="#666666"
     borderopacity="1"
     objecttolerance="10"
     gridtolerance="10"
     guidetolerance="10"
     inkscape:pageopacity="0"
     inkscape:pageshadow="2"
     inkscape:window-width="1366"
     inkscape:window-height="704"
     id="namedview6"
     showgrid="false"
     inkscape:zoom="10.727273"
     inkscape:cx="-16.440677"
     inkscape:cy="17.241157"
     inkscape:window-x="0"
     inkscape:window-y="0"
     inkscape:window-maximized="1"
     inkscape:current-layer="svg4" />
  <path
     d="M 5.5108381,4.8571384 5.1950095,3.621429 C 4.9491239,2.6682863 4.0681238,1.9999436 3.0576571,1.9999996 H 2 V 3.428565 h 1.0576571 c 0.3457238,-0.00973 0.651619,0.2163 0.7344858,0.5428547 l 2.6147619,10.3428633 0.2717618,1.064273 c 0.2478286,0.960911 1.1407143,1.631365 2.1593809,1.621365 H 18.893143 V 15.571374 H 8.8380475 c -0.3457238,0.0099 -0.6516286,-0.216272 -0.7344857,-0.542818 l -0.088133,-0.357183 10.8777142,-2.49282 c 0.80419,-0.181817 1.436381,-0.785636 1.637905,-1.56429 L 22,4.8571384 Z M 19.135524,10.271406 c -0.068,0.260848 -0.280954,0.462401 -0.550858,0.521428 L 7.6775618,13.285645 5.8780761,6.2857036 H 20.156476 Z m -13.463105,9.5857 c 0,-1.183456 0.9865239,-2.142821 2.2034571,-2.142821 1.2169332,0 2.2034479,0.959365 2.2034479,2.142821 0,1.183455 -0.9865147,2.142819 -2.2034479,2.142819 -1.2169332,0 -2.2034571,-0.959364 -2.2034571,-2.142819 z m 1.4689715,0 c 0,0.394455 0.3288381,0.714273 0.7344856,0.714273 0.4056382,0 0.7344764,-0.319818 0.7344764,-0.714273 0,-0.394455 -0.3288382,-0.714274 -0.7344764,-0.714274 -0.4056475,0 -0.7344856,0.319819 -0.7344856,0.714274 z m 7.5126095,-0.82 c 0.341048,-0.800729 1.144476,-1.322821 2.035713,-1.322821 1.216857,0 2.20343,0.959365 2.20343,2.142821 0,0.866727 -0.536857,1.648091 -1.360191,1.979729 -0.823428,0.331636 -1.771141,0.148364 -2.401334,-0.464546 C 14.501429,20.759471 14.312857,19.837832 14.654,19.037106 Z m 1.301238,0.82 c 0,0.394455 0.328762,0.714273 0.734475,0.714273 0.40562,0 0.734478,-0.319818 0.734478,-0.714273 0,-0.394455 -0.328858,-0.714274 -0.734478,-0.714274 -0.405713,0 -0.734475,0.319819 -0.734475,0.714274 z"
     id="path2"
     inkscape:connector-curvature="0"
     style="clip-rule:evenodd;fill:#000000;fill-opacity:1;fill-rule:evenodd;stroke-width:0.93048453" />
</svg>
