<?xml version="1.0" encoding="UTF-8" standalone="no"?>
<svg
   xmlns:dc="http://purl.org/dc/elements/1.1/"
   xmlns:cc="http://creativecommons.org/ns#"
   xmlns:rdf="http://www.w3.org/1999/02/22-rdf-syntax-ns#"
   xmlns:svg="http://www.w3.org/2000/svg"
   xmlns="http://www.w3.org/2000/svg"
   xmlns:sodipodi="http://sodipodi.sourceforge.net/DTD/sodipodi-0.dtd"
   xmlns:inkscape="http://www.inkscape.org/namespaces/inkscape"
   width="20"
   height="20"
   viewBox="0 0 20 20"
   fill="none"
   version="1.1"
   id="svg4"
   sodipodi:docname="instagram.svg"
   inkscape:version="0.92.5 (2060ec1f9f, 2020-04-08)">
  <metadata
     id="metadata10">
    <rdf:RDF>
      <cc:Work
         rdf:about="">
        <dc:format>image/svg+xml</dc:format>
        <dc:type
           rdf:resource="http://purl.org/dc/dcmitype/StillImage" />
        <dc:title />
      </cc:Work>
    </rdf:RDF>
  </metadata>
  <defs
     id="defs8" />
  <sodipodi:namedview
     pagecolor="#ffffff"
     bordercolor="#666666"
     borderopacity="1"
     objecttolerance="10"
     gridtolerance="10"
     guidetolerance="10"
     inkscape:pageopacity="0"
     inkscape:pageshadow="2"
     inkscape:window-width="1366"
     inkscape:window-height="704"
     id="namedview6"
     showgrid="false"
     inkscape:zoom="11.8"
     inkscape:cx="7.0338984"
     inkscape:cy="10"
     inkscape:window-x="0"
     inkscape:window-y="0"
     inkscape:window-maximized="1"
     inkscape:current-layer="svg4" />
  <path
     d="M 10.000938,3e-4 C 7.2850643,3e-4 6.9442327,0.0121753 5.8775501,0.06071621 4.8129574,0.10946659 4.0862866,0.27800884 3.4504508,0.52529905 2.7927362,0.78071575 2.2348163,1.1223849 1.6789762,1.6784195 1.1227161,2.234254 0.7810485,2.7921684 0.5247963,3.4496764 0.27687765,4.0857158 0.10812574,4.8125894 0.06020892,5.8767515 0.01250009,6.9434134 0,7.2844616 0,10.000288 c 0,2.715877 0.01208331,3.055655 0.06041681,4.122287 0.04895886,1.064632 0.21750278,1.791286 0.46458748,2.427045 0.25562723,0.657758 0.59730191,1.215623 1.15334191,1.771487 0.5556301,0.556265 1.1135501,0.898743 1.7708547,1.154127 0.6362557,0.247284 1.3631366,0.415873 2.4275192,0.46467 1.0666726,0.0485 1.4073043,0.0604 4.1229484,0.0604 2.7160235,0 3.0559055,-0.0119 4.1225485,-0.0604 1.064542,-0.0488 1.792103,-0.217386 2.428369,-0.46467 0.657464,-0.255384 1.214534,-0.597862 1.770204,-1.154127 0.55627,-0.555864 0.897952,-1.113729 1.154138,-1.771287 0.245887,-0.635959 0.414578,-1.362913 0.464575,-2.427045 C 19.987501,13.056143 20,12.716165 20,10.000288 20,7.2844616 19.987501,6.9436234 19.939503,5.8769615 19.889506,4.8123794 19.720815,4.0857158 19.474928,3.4498764 19.218742,2.7921684 18.87706,2.234254 18.32079,1.6784195 17.76452,1.122175 17.20825,0.78050776 16.549986,0.52529905 15.91242,0.27800884 15.185359,0.10946659 14.120717,0.06071621 13.054074,0.0121753 12.714492,3e-4 9.9977982,3e-4 Z M 9.1038264,1.8023815 c 0.1741406,-2.699e-4 0.3614805,-1.899e-4 0.5636296,-10e-5 h 1.7e-4 l 0.333312,10e-5 c 2.669957,0 2.98644,0.00958 4.040883,0.057496 0.974947,0.044587 1.504119,0.2075067 1.8567,0.344378 0.466575,0.1812484 0.799357,0.3979146 1.149138,0.7479122 0.349981,0.3500077 0.566669,0.6833364 0.74836,1.1500066 0.136892,0.3520776 0.299984,0.8812438 0.344381,1.8562416 0.0479,1.0541627 0.0583,1.3708325 0.0583,4.0395821 0,2.66877 -0.0104,2.98545 -0.0583,4.039583 -0.0446,0.975037 -0.207489,1.504204 -0.344381,1.856281 -0.181291,0.46667 -0.398379,0.798949 -0.74836,1.148727 -0.349981,0.349977 -0.682263,0.566664 -1.149138,0.747852 -0.352181,0.137591 -0.881753,0.300081 -1.8567,0.344678 -1.054243,0.0479 -1.370926,0.0583 -4.040883,0.0583 -2.6702462,0 -2.9867091,-0.0104 -4.0408823,-0.0583 C 4.9850482,18.090022 4.4558767,17.927132 4.1031656,17.790241 3.6364908,17.609053 3.3031587,17.392366 2.9531476,17.042389 2.6031464,16.692411 2.3864781,16.359832 2.2048079,15.892962 2.0679352,15.540885 1.904804,15.011718 1.8604364,14.036781 1.812519,12.982548 1.8029295,12.665868 1.8029295,9.9954986 c 0,-2.6704196 0.00959,-2.9854195 0.057507,-4.0395822 C 1.905014,4.9809187 2.0679352,4.4517524 2.2048079,4.0992549 2.3860581,3.6325847 2.6031464,3.299256 2.9531476,2.9492583 3.3031587,2.5992507 3.6364908,2.3825845 4.1031656,2.2009261 4.4556667,2.0634249 4.9850482,1.9009252 5.9600557,1.8561281 6.882556,1.8144608 7.2400667,1.8019616 9.1038264,1.7998817 Z m 6.2350246,1.6604141 c -0.662464,0 -1.199935,0.5368757 -1.199935,1.1995834 0,0.6624977 0.537471,1.1999934 1.199935,1.1999934 0.662564,0 1.200035,-0.5374957 1.200035,-1.1999934 0,-0.6624977 -0.537471,-1.2000034 -1.200035,-1.2000034 z M 4.8654546,10.000288 c 0,-2.8359687 2.2992862,-5.1353019 5.1352834,-5.1354119 2.836048,0 5.134824,2.2993732 5.134824,5.1354119 0,2.836069 -2.298576,5.134323 -5.134624,5.134323 -2.8360872,0 -5.1354834,-2.298254 -5.1354834,-5.134323 z m 8.4688044,0 c 0,-1.8410422 -1.49252,-3.333327 -3.333321,-3.333327 -1.8410708,0 -3.3333804,1.4922848 -3.3333804,3.333327 0,1.840833 1.4923096,3.333338 3.3333804,3.333338 1.840801,0 3.333321,-1.492505 3.333321,-3.333338 z"
     id="path2"
     inkscape:connector-curvature="0"
     style="clip-rule:evenodd;fill:#ffffff;fill-rule:evenodd;stroke-width:0.99994117" />
</svg>
