<?xml version="1.0" encoding="UTF-8" standalone="no"?>
<svg
   xmlns:dc="http://purl.org/dc/elements/1.1/"
   xmlns:cc="http://creativecommons.org/ns#"
   xmlns:rdf="http://www.w3.org/1999/02/22-rdf-syntax-ns#"
   xmlns:svg="http://www.w3.org/2000/svg"
   xmlns="http://www.w3.org/2000/svg"
   xmlns:sodipodi="http://sodipodi.sourceforge.net/DTD/sodipodi-0.dtd"
   xmlns:inkscape="http://www.inkscape.org/namespaces/inkscape"
   width="24"
   height="24"
   viewBox="2 2 24 24"
   version="1.1"
   id="svg4"
   sodipodi:docname="search.svg"
   inkscape:version="0.92.5 (2060ec1f9f, 2020-04-08)"
   style="fill:none">
  <metadata
     id="metadata10">
    <rdf:RDF>
      <cc:Work
         rdf:about="">
        <dc:format>image/svg+xml</dc:format>
        <dc:type
           rdf:resource="http://purl.org/dc/dcmitype/StillImage" />
        <dc:title />
      </cc:Work>
    </rdf:RDF>
  </metadata>
  <defs
     id="defs8" />
  <sodipodi:namedview
     pagecolor="#ffffff"
     bordercolor="#666666"
     borderopacity="1"
     objecttolerance="10"
     gridtolerance="10"
     guidetolerance="10"
     inkscape:pageopacity="0"
     inkscape:pageshadow="2"
     inkscape:window-width="1366"
     inkscape:window-height="704"
     id="namedview6"
     showgrid="false"
     inkscape:zoom="7.375"
     inkscape:cx="8.5084756"
     inkscape:cy="8.7288136"
     inkscape:window-x="0"
     inkscape:window-y="0"
     inkscape:window-maximized="1"
     inkscape:current-layer="svg4"
     fit-margin-top="0"
     fit-margin-left="0"
     fit-margin-right="0"
     fit-margin-bottom="0" />
  <path
     d="M 11.837819,19.675734 C 7.509128,19.675734 4,16.166585 4,11.837819 4,7.5091285 7.509128,4 11.837819,4 c 4.328766,0 7.837914,3.5091285 7.837914,7.837819 0,1.872384 -0.656573,3.591337 -1.751907,4.93934 l 5.838674,5.838768 c 0.316667,0.316571 0.316667,0.830001 0,1.146573 -0.316572,0.316667 -0.830002,0.316667 -1.146573,0 l -5.838768,-5.838674 c -1.348003,1.095335 -3.066957,1.751908 -4.93934,1.751908 z m 0,-1.621622 c 3.433146,0 6.216293,-2.783147 6.216293,-6.216293 0,-3.4330994 -2.783147,-6.2161977 -6.216293,-6.2161977 -3.4330996,0 -6.2161981,2.7830983 -6.2161981,6.2161977 0,3.433146 2.7830985,6.216293 6.2161981,6.216293 z"
     id="path2"
     inkscape:connector-curvature="0"
     style="clip-rule:evenodd;fill:#000000;fill-opacity:1;fill-rule:evenodd;stroke-width:0.95238209" />
</svg>
