<?xml version="1.0" encoding="UTF-8" standalone="no"?>
<svg
   xmlns:dc="http://purl.org/dc/elements/1.1/"
   xmlns:cc="http://creativecommons.org/ns#"
   xmlns:rdf="http://www.w3.org/1999/02/22-rdf-syntax-ns#"
   xmlns:svg="http://www.w3.org/2000/svg"
   xmlns="http://www.w3.org/2000/svg"
   xmlns:sodipodi="http://sodipodi.sourceforge.net/DTD/sodipodi-0.dtd"
   xmlns:inkscape="http://www.inkscape.org/namespaces/inkscape"
   width="20"
   height="20"
   viewBox="0 0 20 20"
   version="1.1"
   id="svg4"
   sodipodi:docname="whatsapp.svg"
   style="fill:none"
   inkscape:version="0.92.5 (2060ec1f9f, 2020-04-08)">
  <metadata
     id="metadata10">
    <rdf:RDF>
      <cc:Work
         rdf:about="">
        <dc:format>image/svg+xml</dc:format>
        <dc:type
           rdf:resource="http://purl.org/dc/dcmitype/StillImage" />
        <dc:title />
      </cc:Work>
    </rdf:RDF>
  </metadata>
  <defs
     id="defs8" />
  <sodipodi:namedview
     pagecolor="#ffffff"
     bordercolor="#666666"
     borderopacity="1"
     objecttolerance="10"
     gridtolerance="10"
     guidetolerance="10"
     inkscape:pageopacity="0"
     inkscape:pageshadow="2"
     inkscape:window-width="1366"
     inkscape:window-height="704"
     id="namedview6"
     showgrid="false"
     inkscape:zoom="11.238095"
     inkscape:cx="6.8855932"
     inkscape:cy="10.5"
     inkscape:window-x="0"
     inkscape:window-y="0"
     inkscape:window-maximized="1"
     inkscape:current-layer="svg4" />
  <path
     d="M 10.0419,19.828127 C 15.5323,19.825937 19.9978,15.380719 20,9.917706 20.0011,7.2696729 18.9662,4.7797295 17.0861,2.9065296 15.206,1.0332401 12.7057,0.0011442 10.0418,0 4.55292,0 0.0856743,4.4456166 0.0834898,9.909883 0.0827425,11.656632 0.541295,13.361432 1.41274,14.864502 L 0,20 5.27898,18.621829 c 1.4545,0.789602 3.09213,1.205701 4.75872,1.206298 z M 5.52357,16.827659 2.39095,17.645525 3.22709,14.605846 3.0303,14.294145 C 2.20177,12.982753 1.76418,11.466944 1.76482,9.910461 1.76663,5.3688259 5.47965,1.6739085 10.0451,1.6739085 c 2.2108,7.663e-4 4.2889,0.8586499 5.8516,2.4156607 1.5627,1.5570108 2.4228,3.6265463 2.4219,5.8275698 -0.0018,4.542012 -3.7148,8.237238 -8.2767,8.237238 H 10.0385 C 8.5533,18.15378 7.0966,17.75669 5.82581,17.0062 Z M 14.718,12.051433 c 0.1735,0.0835 0.2907,0.139827 0.3407,0.222927 0.0622,0.103303 0.0622,0.599119 -0.145,1.177636 -0.2075,0.578418 -1.2015,1.106279 -1.6796,1.177436 -0.4287,0.06379 -0.9711,0.09037 -1.5672,-0.09813 -0.3614,-0.114151 -0.8248,-0.266518 -1.4185,-0.52169 -2.33262,-1.002379 -3.90901,-3.252456 -4.20694,-3.677611 -0.02088,-0.02986 -0.03547,-0.05066 -0.04362,-0.0615 l -0.002,-0.0027 c -0.13168,-0.174859 -1.014,-1.346404 -1.014,-2.5589417 0,-1.1406534 0.563,-1.7385276 0.82215,-2.013724 0.01776,-0.018859 0.03409,-0.036196 0.04871,-0.052089 0.22807,-0.2479175 0.49765,-0.3098994 0.66352,-0.3098994 0.16586,0 0.33192,0.00153 0.47689,0.00878 0.01789,8.957e-4 0.03649,7.862e-4 0.05573,6.668e-4 0.145,-8.459e-4 0.32577,-0.0019 0.5041,0.4244086 0.06861,0.1640708 0.169,0.4073009 0.27488,0.6638369 C 8.04193,6.9496024 8.27849,7.5227555 8.3201,7.6056966 8.38232,7.7296504 8.42378,7.8742051 8.34085,8.0395498 8.3284,8.0643306 8.31688,8.087728 8.30588,8.1100805 8.24359,8.2366517 8.19777,8.3297539 8.09204,8.4526129 8.05046,8.5009305 8.00749,8.55301 7.96452,8.6050895 7.87892,8.7088305 7.79333,8.8125715 7.71879,8.8864661 7.59423,9.009952 7.46456,9.143918 7.6097,9.391835 c 0.14515,0.247918 0.64452,1.058797 1.38422,1.715439 0.79514,0.705805 1.48618,1.00417 1.83648,1.155343 0.0684,0.02956 0.1239,0.05354 0.1645,0.07374 0.2487,0.124004 0.3939,0.103204 0.539,-0.062 0.1452,-0.165205 0.622,-0.723121 0.7879,-0.97093 0.1658,-0.247808 0.3318,-0.206506 0.5598,-0.123904 0.2281,0.0827 1.4515,0.681622 1.7003,0.805625 0.0486,0.02418 0.094,0.04598 0.1361,0.06628 z"
     id="path2"
     inkscape:connector-curvature="0"
     style="clip-rule:evenodd;fill:#ffffff;fill-rule:evenodd;stroke-width:0.99760365" />
</svg>
